<?xml version="1.0" encoding="utf-8"?>
<!-- Generator: Adobe Illustrator 21.0.0, SVG Export Plug-In . SVG Version: 6.00 Build 0)  -->
<svg version="1.1" id="Layer_1" xmlns="http://www.w3.org/2000/svg" xmlns:xlink="http://www.w3.org/1999/xlink" x="0px" y="0px"
	 viewBox="0 0 200 200" style="enable-background:new 0 0 200 200;" xml:space="preserve">
<style type="text/css">
	.st0{fill:#20AEE3;}
</style>
<path class="st0" d="M190,86.4c0-38.8-40.1-70.3-89.7-70.3c-49.5,0-89.7,31.5-89.7,70.3c0,37.4,37.2,67.9,84.1,70.1l38.3,34.8
	l-20-35.4C156.6,151.1,190,121.8,190,86.4z M66.5,96.3c-5.8,0-10.4-4.7-10.4-10.4c0-5.8,4.7-10.4,10.4-10.4
	c5.8,0,10.4,4.7,10.4,10.4C77,91.7,72.3,96.3,66.5,96.3z M100.3,96.3c-5.8,0-10.4-4.7-10.4-10.4c0-5.8,4.7-10.4,10.4-10.4
	c5.8,0,10.4,4.7,10.4,10.4C110.8,91.7,106.1,96.3,100.3,96.3z M134.1,96.3c-5.8,0-10.4-4.7-10.4-10.4c0-5.8,4.7-10.4,10.4-10.4
	c5.8,0,10.4,4.7,10.4,10.4C144.6,91.7,139.9,96.3,134.1,96.3z"/>
</svg>
