<?xml version="1.0" encoding="utf-8"?>
<!-- Generator: Adobe Illustrator 21.0.0, SVG Export Plug-In . SVG Version: 6.00 Build 0)  -->
<svg version="1.1" id="Layer_1" xmlns="http://www.w3.org/2000/svg" xmlns:xlink="http://www.w3.org/1999/xlink" x="0px" y="0px"
	 viewBox="0 0 200 200" style="enable-background:new 0 0 200 200;" xml:space="preserve">
<style type="text/css">
	.st0{fill:#20AEE3;}
</style>
<path class="st0" d="M-95,86.4c0-38.8-40.1-70.3-89.7-70.3c-49.5,0-89.7,31.5-89.7,70.3c0,37.4,37.2,67.9,84.1,70.1l38.3,34.8
	l-20-35.4C-128.4,151.1-95,121.8-95,86.4z M-218.5,96.3c-5.8,0-10.4-4.7-10.4-10.4c0-5.8,4.7-10.4,10.4-10.4
	c5.8,0,10.4,4.7,10.4,10.4C-208,91.7-212.7,96.3-218.5,96.3z M-184.7,96.3c-5.8,0-10.4-4.7-10.4-10.4c0-5.8,4.7-10.4,10.4-10.4
	c5.8,0,10.4,4.7,10.4,10.4C-174.2,91.7-178.9,96.3-184.7,96.3z M-150.9,96.3c-5.8,0-10.4-4.7-10.4-10.4c0-5.8,4.7-10.4,10.4-10.4
	c5.8,0,10.4,4.7,10.4,10.4C-140.4,91.7-145.1,96.3-150.9,96.3z"/>
<path class="st0" d="M14.7,106.7c0.2-1,1.2-3.6,1.6-4.9c3.3-9.9,9.8-17,19.5-20.8c9.5-3.7,19.1-6.9,28.5-10.6c2.5-1,3.7-0.7,4.6,2
	c6.7,18.8,13.5,37.6,20.4,56.3c1,2.8,0.1,3.5-2.3,4.4c-9.1,3.2-18.1,6.7-27.2,9.9c-19.1,6.7-37.6-2.5-43.8-21.8
	c-0.3-1-1-3.5-1.3-4.9C13.7,112.5,14,109.8,14.7,106.7z"/>
<path class="st0" d="M144.1,6.9c14.9,41.2,29.8,82.3,44.9,124c-9.8-1.5-18.9-3.2-28.1-4.3c-18-2.2-36-2.8-54,0.2
	c-2.9,0.5-4.3-0.2-5.3-3.1c-6.5-18.5-13.3-37-20-55.5c-0.8-2.1-1.3-3.6,1.3-5.1c22.9-13.5,40.9-32.4,57.5-52.7
	C141.3,9.2,141.9,7.6,144.1,6.9z"/>
<path class="st0" d="M96.5,193.1c-4.8,0.3-7.6-1.2-9.6-3.9c-7.9-10-15.7-20.1-23.5-30.1c-1.4-1.8-1.2-2.6,1-3.4
	c9-3.2,17.9-6.5,26.8-9.8c2.2-0.8,3.2,0.1,4.3,1.7c4.3,5.9,8.7,11.6,13,17.5c2.8,3.9,6.2,7,10.7,8.7c2.8,1.1,4.8,2.9,4.7,6
	c-0.2,3.1-2.4,4.6-5.2,5.6c-6.2,2.2-12.4,4.5-18.6,6.8C98.5,192.8,96.9,193.1,96.5,193.1z"/>
</svg>
