<?xml version="1.0" encoding="utf-8"?>
<!-- Generator: Adobe Illustrator 21.0.0, SVG Export Plug-In . SVG Version: 6.00 Build 0)  -->
<svg version="1.1" id="Layer_1" xmlns="http://www.w3.org/2000/svg" xmlns:xlink="http://www.w3.org/1999/xlink" x="0px" y="0px"
	 viewBox="0 0 200 200" style="enable-background:new 0 0 200 200;" xml:space="preserve">
<style type="text/css">
	.st0{fill:#20AEE3;}
</style>
<g>
	<g>
		<path class="st0" d="M121.2,30.6c0,0.4,0,0.7,0,1.1c0,0.4,0,0.7-0.1,1c-0.1,0.5-0.1,1-0.2,1.5c-0.1,0.6-0.2,1.1-0.4,1.6
			c-0.3,1-0.6,2-1,3c-0.1,0.1-0.1,0.3-0.2,0.4c-0.2,0.5-0.5,1-0.7,1.4c-0.1,0.1-0.2,0.3-0.2,0.4c-1,1.6-2.1,3.1-3.5,4.4
			c-0.1,0.1-0.3,0.2-0.4,0.4c-0.2,0.2-0.5,0.4-0.7,0.6c-0.2,0.1-0.3,0.3-0.5,0.4c-0.4,0.3-0.7,0.5-1.1,0.8c-0.1,0-0.1,0.1-0.2,0.1
			c-0.5,0.3-1,0.6-1.5,0.9c-0.5,0.3-0.9,0.5-1.4,0.7c0,0-0.1,0-0.1,0c-1,0.4-2,0.8-3,1.1c-0.2,0.1-0.4,0.1-0.7,0.2
			c-1,0.2-2.1,0.4-3.2,0.5c-0.3,0-0.7,0-1.1,0.1c-0.2,0-0.4,0-0.5,0c-0.2,0-0.4,0-0.5,0c-0.4,0-0.7,0-1.1-0.1
			c-1.1-0.1-2.2-0.3-3.2-0.5c-0.2-0.1-0.4-0.1-0.7-0.2c-1-0.3-2-0.6-3-1.1c0,0-0.1,0-0.1,0c-0.4-0.2-0.9-0.4-1.3-0.6
			c-0.6-0.3-1.1-0.6-1.6-1c-0.1,0-0.1-0.1-0.2-0.1c-0.4-0.3-0.7-0.5-1.1-0.8c-0.2-0.1-0.3-0.2-0.5-0.4c-0.2-0.2-0.5-0.4-0.7-0.6
			c-0.3-0.2-0.5-0.5-0.7-0.7c-1.2-1.2-2.3-2.6-3.2-4.1c-0.1-0.1-0.2-0.3-0.2-0.4c-0.3-0.5-0.5-0.9-0.7-1.4c-0.1-0.1-0.1-0.3-0.2-0.4
			c-0.4-1-0.8-2-1-3c-0.1-0.5-0.3-1.1-0.4-1.6c-0.1-0.5-0.2-1-0.2-1.5c0-0.3-0.1-0.7-0.1-1c0-0.4,0-0.7,0-1.1c0-0.4,0.1-0.7,0.1-1.1
			c0-0.2,0.1-0.4,0.1-0.6v0c0-0.1,0-0.3,0-0.4c0-0.1,0-0.3,0-0.4c0-0.4,0.1-0.8,0.2-1.2c0.1-0.6,0.2-1.1,0.4-1.6c0.3-1,0.6-2,1-3
			c0-0.1,0.1-0.1,0.1-0.2c0-0.1,0.1-0.1,0.1-0.2c0.2-0.5,0.5-1,0.7-1.4c0.1-0.1,0.2-0.3,0.2-0.4c1-1.6,2.1-3.1,3.5-4.4
			c0.1-0.1,0.3-0.2,0.4-0.4c0.2-0.2,0.5-0.4,0.7-0.6c0.2-0.1,0.3-0.3,0.5-0.4c0.4-0.3,0.7-0.5,1.1-0.8c0.1,0,0.1-0.1,0.2-0.1
			c0.9-0.6,1.9-1.2,2.9-1.6c0,0,0.1,0,0.1,0c1-0.4,2-0.8,3-1.1c0.2-0.1,0.4-0.1,0.7-0.2c1-0.2,2.1-0.4,3.2-0.5c0.3,0,0.7,0,1.1-0.1
			c0.2,0,0.4,0,0.5,0c0.2,0,0.4,0,0.5,0c0.4,0,0.7,0,1.1,0.1c1.1,0.1,2.2,0.3,3.2,0.5c0.2,0.1,0.4,0.1,0.7,0.2c1,0.3,2,0.6,3,1.1
			c0,0,0.1,0,0.1,0c1,0.5,2,1,2.9,1.6c0.1,0,0.1,0.1,0.2,0.1c0.4,0.3,0.7,0.5,1.1,0.8c0.2,0.1,0.3,0.2,0.5,0.4
			c0.2,0.2,0.5,0.4,0.7,0.6c0.1,0.1,0.3,0.2,0.4,0.4c1.4,1.3,2.5,2.8,3.5,4.4c0.1,0.1,0.2,0.3,0.2,0.4c0.3,0.5,0.5,0.9,0.7,1.4
			c0.1,0.1,0.1,0.3,0.2,0.4c0.4,1,0.8,2,1,3c0.1,0.5,0.3,1.1,0.4,1.6c0.1,0.5,0.2,1,0.2,1.5c0,0.2,0,0.3,0,0.5c0,0.2,0,0.4,0,0.6
			C121.2,29.9,121.2,30.3,121.2,30.6z"/>
		<path class="st0" d="M80.1,28.9C80.1,28.9,80.1,28.9,80.1,28.9C80.1,28.9,80.1,28.9,80.1,28.9L80.1,28.9
			C80.1,28.9,80.1,28.9,80.1,28.9z M79.7,28.7C79.7,28.7,79.7,28.7,79.7,28.7c0.2,0.1,0.2,0.1,0.4,0.2c0,0,0,0-0.1,0
			C79.9,28.8,79.8,28.7,79.7,28.7z"/>
		<path class="st0" d="M79.7,28.7c0.1,0,0.2,0.1,0.3,0.1C79.9,28.8,79.8,28.8,79.7,28.7C79.7,28.7,79.7,28.7,79.7,28.7z"/>
		<path class="st0" d="M80.1,28.9L80.1,28.9C80.1,28.9,80.1,28.9,80.1,28.9C80.1,28.9,80.1,28.9,80.1,28.9
			C80.1,28.9,80.1,28.9,80.1,28.9z"/>
	</g>
	<path class="st0" d="M134.7,70.9v21.3c0,0.4,0,0.5-0.4,0.5H66.9c-0.4,0-0.8-0.1-0.8-0.5V70.9c0-0.3,0-0.7,0-1
		c0.2-5.1,2.3-9.7,5.5-13.2c0.1-0.1,0.2-0.2,0.3-0.3c1.6-1.7,3.4-3,5.5-4.1c0.1-0.1,0.2-0.1,0.4-0.2c0.6-0.3,1.1-0.5,1.7-0.7
		c0.1,0,0.3-0.1,0.4-0.1c0.5-0.2,1.1-0.3,1.6-0.5c0.7,0.6,1.4,1.2,2.1,1.8c1.9,1.5,3.9,2.7,6,3.6c0.4,0.2,0.8,0.3,1.2,0.5
		c1.6,0.6,3.2,1.1,4.8,1.4c1.6,0.3,3.3,0.4,4.9,0.4c1.9,0,3.8-0.2,5.6-0.6c0.2,0,0.5-0.1,0.7-0.1c0,0,0,0,0,0c0.3,0,0.7,0,1,0
		c0,0,0,0,0,0c0.9,0,1.8-0.7,2.6-1c0.3-0.1,0.7-0.4,1-0.6c1.7-0.7,3.3-1.7,4.7-2.9c0,0,0,0,0,0c0.2,0,0.3-0.1,0.5-0.3
		c1-0.7,1.9-1.5,2.8-2.3c8.5,2,14.7,9.7,15.2,19C134.8,70.2,134.7,70.6,134.7,70.9z"/>
</g>
<g>
	<g>
		<path class="st0" d="M62.4,127.8c0,0.4,0,0.7,0,1.1c0,0.4,0,0.7-0.1,1c-0.1,0.5-0.1,1-0.2,1.5c-0.1,0.6-0.2,1.1-0.4,1.6
			c-0.3,1-0.6,2-1,3c-0.1,0.1-0.1,0.3-0.2,0.4c-0.2,0.5-0.5,1-0.7,1.4c-0.1,0.1-0.2,0.3-0.2,0.4c-1,1.6-2.1,3.1-3.5,4.4
			c-0.1,0.1-0.3,0.2-0.4,0.4c-0.2,0.2-0.5,0.4-0.7,0.6c-0.2,0.1-0.3,0.3-0.5,0.4c-0.4,0.3-0.7,0.5-1.1,0.8c-0.1,0-0.1,0.1-0.2,0.1
			c-0.5,0.3-1,0.6-1.5,0.9c-0.5,0.3-0.9,0.5-1.4,0.7c0,0-0.1,0-0.1,0c-1,0.4-2,0.8-3,1.1c-0.2,0.1-0.4,0.1-0.7,0.2
			c-1,0.2-2.1,0.4-3.2,0.5c-0.3,0-0.7,0-1.1,0.1c-0.2,0-0.4,0-0.5,0c-0.2,0-0.4,0-0.5,0c-0.4,0-0.7,0-1.1-0.1
			c-1.1-0.1-2.2-0.3-3.2-0.5c-0.2-0.1-0.4-0.1-0.7-0.2c-1-0.3-2-0.6-3-1.1c0,0-0.1,0-0.1,0c-0.4-0.2-0.9-0.4-1.3-0.6
			c-0.6-0.3-1.1-0.6-1.6-1c-0.1,0-0.1-0.1-0.2-0.1c-0.4-0.3-0.7-0.5-1.1-0.8c-0.2-0.1-0.3-0.2-0.5-0.4c-0.2-0.2-0.5-0.4-0.7-0.6
			c-0.3-0.2-0.5-0.5-0.7-0.7c-1.2-1.2-2.3-2.6-3.2-4.1c-0.1-0.1-0.2-0.3-0.2-0.4c-0.3-0.5-0.5-0.9-0.7-1.4c-0.1-0.1-0.1-0.3-0.2-0.4
			c-0.4-1-0.8-2-1-3c-0.1-0.5-0.3-1.1-0.4-1.6c-0.1-0.5-0.2-1-0.2-1.5c0-0.3-0.1-0.7-0.1-1c0-0.4,0-0.7,0-1.1s0-0.7,0-1.1
			c0-0.2,0-0.4,0-0.6v0c0-0.1,0-0.3,0.1-0.4c0-0.1,0-0.3,0.1-0.4c0-0.4,0.1-0.8,0.2-1.2c0.1-0.6,0.2-1.1,0.4-1.6c0.3-1,0.6-2,1-3
			c0-0.1,0.1-0.1,0.1-0.2s0.1-0.1,0.1-0.2c0.2-0.5,0.5-1,0.7-1.4c0.1-0.1,0.2-0.3,0.2-0.4c1-1.6,2.1-3.1,3.5-4.4
			c0.1-0.1,0.3-0.2,0.4-0.4c0.2-0.2,0.5-0.4,0.7-0.6c0.2-0.1,0.3-0.3,0.5-0.4c0.4-0.3,0.7-0.5,1.1-0.8c0.1,0,0.1-0.1,0.2-0.1
			c0.9-0.6,1.9-1.2,2.9-1.6c0,0,0.1,0,0.1,0c1-0.4,2-0.8,3-1.1c0.2-0.1,0.4-0.1,0.7-0.2c1-0.2,2.1-0.4,3.2-0.5c0.3,0,0.7,0,1.1-0.1
			c0.2,0,0.4,0,0.5,0c0.2,0,0.4,0,0.5,0c0.4,0,0.7,0,1.1,0.1c1.1,0.1,2.2,0.3,3.2,0.5c0.2,0.1,0.4,0.1,0.7,0.2c1,0.3,2,0.6,3,1.1
			c0,0,0.1,0,0.1,0c1,0.5,2,1,2.9,1.6c0.1,0,0.1,0.1,0.2,0.1c0.4,0.3,0.7,0.5,1.1,0.8c0.2,0.1,0.3,0.2,0.5,0.4
			c0.2,0.2,0.5,0.4,0.7,0.6c0.1,0.1,0.3,0.2,0.4,0.4c1.4,1.3,2.5,2.8,3.5,4.4c0.1,0.1,0.2,0.3,0.2,0.4c0.3,0.5,0.5,0.9,0.7,1.4
			c0.1,0.1,0.1,0.3,0.2,0.4c0.4,1,0.8,2,1,3c0.1,0.5,0.3,1.1,0.4,1.6c0.1,0.5,0.2,1,0.2,1.5c0,0.2,0,0.3,0,0.5c0,0.2,0,0.4,0,0.6
			C62.4,127.1,62.4,127.5,62.4,127.8z"/>
		<path class="st0" d="M21.2,126.1C21.2,126.1,21.2,126.1,21.2,126.1C21.2,126.1,21.2,126.1,21.2,126.1L21.2,126.1
			C21.2,126.1,21.2,126.1,21.2,126.1z M20.8,125.9C20.9,125.9,20.9,126,20.8,125.9c0.2,0.1,0.2,0.1,0.4,0.2c0,0,0,0-0.1,0
			C21.1,126,20.9,126,20.8,125.9z"/>
		<path class="st0" d="M20.8,125.9c0.1,0,0.2,0.1,0.3,0.1C21.1,126,21,126,20.8,125.9C20.9,126,20.9,125.9,20.8,125.9z"/>
		<path class="st0" d="M21.2,126.1L21.2,126.1C21.2,126.1,21.2,126.1,21.2,126.1C21.2,126.1,21.2,126.1,21.2,126.1
			C21.2,126.1,21.2,126.1,21.2,126.1z"/>
	</g>
	<path class="st0" d="M76.2,168.2v21.3c0,0.4-0.4,0.5-0.8,0.5H8.1c-0.4,0-0.9,0-0.9-0.5v-21.3c0-0.3,0.1-0.7,0.1-1
		c0.2-5.1,2.3-9.7,5.5-13.2c0.1-0.1,0.2-0.2,0.3-0.3c1.6-1.7,3.5-3,5.5-4.1c0.1-0.1,0.3-0.1,0.4-0.2c0.6-0.3,1.1-0.5,1.7-0.7
		c0.1,0,0.3-0.1,0.4-0.1c0.5-0.2,1.1-0.3,1.6-0.5c0.7,0.6,1.4,1.2,2.1,1.8c1.9,1.5,3.9,2.7,6,3.6c0.4,0.2,0.8,0.3,1.2,0.5
		c1.6,0.6,3.2,1.1,4.8,1.4c1.6,0.3,3.3,0.4,4.9,0.4c1.9,0,3.8-0.2,5.6-0.6c0.2,0,0.5-0.2,0.7-0.2c0,0,0,0,0,0c0.3,0,0.7,0,1,0
		c0,0,0,0,0,0c0.9,0,1.8-0.7,2.6-1c0.3-0.1,0.7-0.5,1-0.6c1.7-0.7,3.3-1.7,4.7-2.9c0,0,0,0,0,0c0.2,0,0.3-0.1,0.5-0.2
		c1-0.7,1.9-1.5,2.8-2.3c8.5,2,14.9,9.7,15.4,19C76.1,167.5,76.2,167.8,76.2,168.2z"/>
</g>
<g>
	<g>
		<path class="st0" d="M178.4,127.5c0,0.4,0,0.7,0,1.1c0,0.4,0,0.7-0.1,1c-0.1,0.5-0.1,1-0.2,1.5c-0.1,0.6-0.2,1.1-0.4,1.6
			c-0.3,1-0.6,2-1,3c-0.1,0.1-0.1,0.3-0.2,0.4c-0.2,0.5-0.5,1-0.7,1.4c-0.1,0.1-0.2,0.3-0.2,0.4c-1,1.6-2.1,3.1-3.5,4.4
			c-0.1,0.1-0.3,0.2-0.4,0.4c-0.2,0.2-0.5,0.4-0.7,0.6c-0.2,0.1-0.3,0.3-0.5,0.4c-0.4,0.3-0.7,0.5-1.1,0.8c-0.1,0-0.1,0.1-0.2,0.1
			c-0.5,0.3-1,0.6-1.5,0.9c-0.5,0.3-0.9,0.5-1.4,0.7c0,0-0.1,0-0.1,0c-1,0.4-2,0.8-3,1.1c-0.2,0.1-0.4,0.1-0.7,0.2
			c-1,0.2-2.1,0.4-3.2,0.5c-0.3,0-0.7,0-1.1,0.1c-0.2,0-0.4,0-0.5,0c-0.2,0-0.4,0-0.5,0c-0.4,0-0.7,0-1.1-0.1
			c-1.1-0.1-2.2-0.3-3.2-0.5c-0.2-0.1-0.4-0.1-0.7-0.2c-1-0.3-2-0.6-3-1.1c0,0-0.1,0-0.1,0c-0.4-0.2-0.9-0.4-1.3-0.6
			c-0.6-0.3-1.1-0.6-1.6-1c-0.1,0-0.1-0.1-0.2-0.1c-0.4-0.3-0.7-0.5-1.1-0.8c-0.2-0.1-0.3-0.2-0.5-0.4c-0.2-0.2-0.5-0.4-0.7-0.6
			c-0.3-0.2-0.5-0.5-0.7-0.7c-1.2-1.2-2.3-2.6-3.2-4.1c-0.1-0.1-0.2-0.3-0.2-0.4c-0.3-0.5-0.5-0.9-0.7-1.4c-0.1-0.1-0.1-0.3-0.2-0.4
			c-0.4-1-0.8-2-1-3c-0.1-0.5-0.3-1.1-0.4-1.6c-0.1-0.5-0.2-1-0.2-1.5c0-0.3-0.1-0.7-0.1-1c0-0.4,0-0.7,0-1.1s-0.1-0.7-0.1-1.1
			c0-0.2-0.1-0.4-0.1-0.6v0c0-0.1,0.2-0.3,0.2-0.4c0-0.1,0.1-0.3,0.1-0.4c0-0.4,0.1-0.8,0.2-1.2c0.1-0.6,0.2-1.1,0.4-1.6
			c0.3-1,0.6-2,1.1-3c0-0.1,0.1-0.1,0.1-0.2c0-0.1,0.1-0.1,0.1-0.2c0.2-0.5,0.5-1,0.7-1.4c0.1-0.1,0.2-0.3,0.2-0.4
			c1-1.6,2.1-3.1,3.5-4.4c0.1-0.1,0.3-0.2,0.4-0.4c0.2-0.2,0.5-0.4,0.7-0.6c0.2-0.1,0.3-0.3,0.5-0.4c0.4-0.3,0.7-0.5,1.1-0.8
			c0.1,0,0.1-0.1,0.2-0.1c0.9-0.6,1.9-1.2,2.9-1.6c0,0,0.1,0,0.1,0c1-0.4,2-0.8,3-1.1c0.2-0.1,0.4-0.1,0.7-0.2
			c1-0.2,2.1-0.4,3.2-0.5c0.3,0,0.7,0,1.1-0.1c0.2,0,0.4,0,0.5,0c0.2,0,0.4,0,0.5,0c0.4,0,0.7,0,1.1,0.1c1.1,0.1,2.2,0.3,3.2,0.5
			c0.2,0.1,0.4,0.1,0.7,0.2c1,0.3,2,0.6,3,1.1c0,0,0.1,0,0.1,0c1,0.5,2,1,2.9,1.6c0.1,0,0.1,0.1,0.2,0.1c0.4,0.3,0.7,0.5,1.1,0.8
			c0.2,0.1,0.3,0.2,0.5,0.4c0.2,0.2,0.5,0.4,0.7,0.6c0.1,0.1,0.3,0.2,0.4,0.4c1.4,1.3,2.5,2.8,3.5,4.4c0.1,0.1,0.2,0.3,0.2,0.4
			c0.3,0.5,0.5,0.9,0.7,1.4c0.1,0.1,0.1,0.3,0.2,0.4c0.4,1,0.8,2,1,3c0.1,0.5,0.3,1.1,0.4,1.6c0.1,0.5,0.2,1,0.2,1.5
			c0,0.2,0,0.3,0,0.5c0,0.2,0,0.4,0,0.6C178.4,126.8,178.4,127.1,178.4,127.5z"/>
		<path class="st0" d="M137.2,125.8C137.2,125.8,137.2,125.8,137.2,125.8C137.2,125.8,137.2,125.8,137.2,125.8L137.2,125.8
			C137.2,125.8,137.2,125.8,137.2,125.8z M136.9,125.6C136.9,125.6,136.9,125.6,136.9,125.6c0.2,0.1,0.2,0.1,0.4,0.2c0,0,0,0-0.1,0
			C137.1,125.7,137,125.6,136.9,125.6z"/>
		<path class="st0" d="M136.9,125.6c0.1,0,0.2,0.1,0.3,0.1C137.1,125.7,137,125.7,136.9,125.6C136.9,125.6,136.9,125.6,136.9,125.6z
			"/>
		<path class="st0" d="M137.2,125.8L137.2,125.8C137.2,125.8,137.2,125.8,137.2,125.8C137.2,125.8,137.2,125.8,137.2,125.8
			C137.2,125.8,137.2,125.8,137.2,125.8z"/>
	</g>
	<path class="st0" d="M192,167.8v21.3c0,0.4-0.1,0.8-0.5,0.8h-67.3c-0.4,0-0.7-0.4-0.7-0.8v-21.3c0-0.3-0.1-0.7-0.1-1
		c0.2-5.1,2.2-9.7,5.4-13.2c0.1-0.1,0.2-0.2,0.3-0.3c1.6-1.7,3.4-3,5.5-4.1c0.1-0.1,0.2-0.1,0.4-0.2c0.6-0.3,1.1-0.5,1.7-0.7
		c0.1,0,0.3-0.1,0.4-0.1c0.5-0.2,1.1-0.3,1.6-0.5c0.7,0.6,1.4,1.2,2.1,1.8c1.9,1.5,3.9,2.7,6,3.6c0.4,0.2,0.8,0.3,1.2,0.5
		c1.6,0.6,3.2,1.1,4.8,1.4c1.6,0.3,3.3,0.4,4.9,0.4c1.9,0,3.8-0.3,5.6-0.7c0.2,0,0.5-0.3,0.7-0.3c0,0,0,0,0,0c0.3,0,0.7,0,1,0
		c0,0,0,0,0,0c0.9,0,1.8-0.6,2.6-0.9c0.3-0.1,0.7-0.2,1-0.4c1.7-0.7,3.3-1.5,4.7-2.6c0,0,0,0,0,0c0.2,0,0.3-0.3,0.5-0.4
		c1-0.7,1.9-1.5,2.8-2.4c8.5,2,14.8,9.7,15.2,19C192,167.2,192,167.5,192,167.8z"/>
</g>
<path class="st0" d="M99.8,97.9h-0.5c-2.1,0-3.8,1.7-3.8,3.8v27.9c0,2.1,1.7,3.8,3.8,3.8h0.5c2.1,0,3.8-1.7,3.8-3.8v-27.9
	C103.6,99.6,101.9,97.9,99.8,97.9z"/>
<path class="st0" d="M96.5,126.5l-0.3,0.4c-1.3,1.6-1,4,0.6,5.3l21.8,17.4c1.6,1.3,4,1,5.3-0.6l0.3-0.4c1.3-1.6,1-4-0.6-5.3
	l-21.8-17.4C100.2,124.6,97.8,124.9,96.5,126.5z"/>
<path class="st0" d="M73.7,149l-0.3-0.4c-1.3-1.6-1-4,0.6-5.3l21.8-17.4c1.6-1.3,4-1,5.3,0.6l0.3,0.4c1.3,1.6,1,4-0.6,5.3L79,149.6
	C77.4,150.9,75,150.6,73.7,149z"/>
</svg>
