<?xml version="1.0" encoding="utf-8"?>
<!-- Generator: Adobe Illustrator 21.0.0, SVG Export Plug-In . SVG Version: 6.00 Build 0)  -->
<svg version="1.1" id="Layer_1" xmlns="http://www.w3.org/2000/svg" xmlns:xlink="http://www.w3.org/1999/xlink" x="0px" y="0px"
	 viewBox="0 0 200 200" style="enable-background:new 0 0 200 200;" xml:space="preserve">
<style type="text/css">
	.st0{fill:#20AEE3;}
</style>
<path class="st0" d="M4,100.3c1.5-1.8,3-3.8,4.7-5.4c12-11.5,24-23,36-34.4C53.8,51.7,63,43,72.2,34.3c6.1-5.8,12.2-11.7,18.3-17.5
	c5.4-5.1,13-5.1,18.4,0.1c9.3,8.8,18.5,17.7,27.8,26.6c0.2,0.2,0.4,0.3,0.9,0.7c0.1-0.8,0.1-1.4,0.1-2c0-7.7,0-15.3,0-23
	c0-4.3,1.2-5.7,4.9-5.7c6.9,0,13.8,0,20.6,0c3.5,0,4.8,1.4,4.8,5.5c0,17.5,0,34.9,0,52.4c0,1.4,0.4,2.4,1.3,3.3
	c7.9,7.4,15.7,14.8,23.5,22.3c1,0.9,1.7,2.3,2.5,3.4c0,0.8,0,1.6,0,2.5c-2.5,3.5-5,7-7.5,10.5c-2.2,3-4.1,3.3-6.8,0.7
	c-7.1-6.8-14.2-13.6-21.3-20.4c-6.3-6-12.5-11.9-18.8-17.9c-6.5-6.2-12.9-12.3-19.4-18.5c-7-6.7-13.9-13.3-20.8-20
	c-0.8-0.8-1.4-0.8-2.2,0c-6.3,6.1-12.7,12.2-19.1,18.3c-6.3,6.1-12.7,12.1-19,18.1C54.2,79.8,47.8,85.9,41.4,92
	c-7.1,6.8-14.2,13.6-21.3,20.4c-0.8,0.8-1.6,1.6-2.5,2.3c-2,1.6-3.8,1.5-5.4-0.6c-2.8-3.7-5.4-7.5-8.1-11.3C4,102,4,101.2,4,100.3z"
	/>
<path class="st0" d="M114.9,187.5c0-17.4,0-34.6,0-52c-0.7,0-1.2-0.1-1.7-0.1c-9,0-18,0-27.1,0c-1.3,0-1.7,0.4-1.7,2
	c0,16,0,31.9,0,47.9c0,0.7,0,1.5,0,2.5c-0.7,0-1.3,0-1.8,0c-14.3,0-28.5,0-42.8,0c-5.5,0-8.5-3.4-8.5-9.7c0-21,0-42,0-62.9
	c0-1.6,0.5-2.5,1.5-3.5c10.6-9.9,21.1-19.9,31.6-29.8c9.3-8.8,18.6-17.5,27.8-26.2c2.5-2.3,4.9-4.7,7.4-7.1c3.7,3.5,7.4,7,11,10.4
	c10.6,10.1,21.3,20.1,31.9,30.2c8.2,7.7,16.3,15.4,24.5,23.2c0.5,0.5,0.9,1.5,0.9,2.2c0,21.5,0.1,43,0,64.5c0,5.2-3.1,8.8-7.6,8.8
	c-14.9,0.1-29.8,0-44.6,0C115.6,187.6,115.4,187.6,114.9,187.5z"/>
</svg>
