<svg id="Layer_1" data-name="Layer 1" xmlns="http://www.w3.org/2000/svg" viewBox="0 0 187.06 187.19"><defs><style>.cls-1{fill:#20aee3;}</style></defs><title>reporti</title><path class="cls-1" d="M115.53,190.11c-28.95,9.1-69.46-6.27-90.6-34.06-24.28-31.92-26-74.8-4.37-107.94,21.29-32.58,61-49,98.43-40.19l-2.13,7.44c-7.1,24.79-14.5,49.51-21.1,74.44a39.77,39.77,0,0,0-.24,18.36c5.7,24.87,12.18,49.56,18.35,74.33C114.5,185,115,187.6,115.53,190.11Z" transform="translate(-5.44 -5.54)"/><path class="cls-1" d="M127.36,188.22l-20-80.19,79.48,22.77C176,159.16,156.33,177.8,127.36,188.22Z" transform="translate(-5.44 -5.54)"/><path class="cls-1" d="M130.58,11.41c42.25,12.45,70.53,63.23,59.55,107.09L106.74,94.61Z" transform="translate(-5.44 -5.54)"/></svg>